<?xml version="1.0" encoding="utf-8"?>
<!-- Generator: Adobe Illustrator 25.2.3, SVG Export Plug-In . SVG Version: 6.00 Build 0)  -->
<svg version="1.1" id="Calque_1" xmlns="http://www.w3.org/2000/svg" xmlns:xlink="http://www.w3.org/1999/xlink" x="0px" y="0px"
	 viewBox="0 0 256 256" style="enable-background:new 0 0 256 256;" xml:space="preserve">
<style type="text/css">
	.st0{fill:#FFFFFF;}
	.st1{fill:#191919;}
	.st2{fill:#4F46E5;}
</style>
<path class="st0" d="M240,256H16c-8.8,0-16-7.2-16-16V16C0,7.2,7.2,0,16,0h224c8.8,0,16,7.2,16,16v224C256,248.8,248.8,256,240,256z
	"/>
<path class="st1" d="M40.9,210.6h6.9c5.6,0,9.9-1.2,13.4-4c2.8-2.1,5.2-5.2,7.4-9.4c0.3-0.6,0.6-1.5-0.2-1.9L56,189.7
	c-0.8-0.4-1.5,0.1-1.9,0.8c-2,3.6-4.3,5.6-7.3,5.6h-6c-3.4,0-5.3-1.7-5.3-4.2v-28c0-2.5,1.9-4.2,5.3-4.2h6c3,0,5.3,2,7.3,5.6
	c0.4,0.7,1.1,1.2,1.9,0.8l12.3-5.7c0.8-0.4,0.5-1.3,0.2-1.9c-1.8-3.4-3.7-6-5.8-8.1c-3.9-3.7-8.6-5.3-15-5.3h-6.9
	c-13.4,0-21.6,7.5-21.6,18.7v28C19.3,203.1,27.4,210.6,40.9,210.6z M101.3,210.6c12.7,0,21.4-7.5,21.4-18.7v-28
	c0-11.3-8.7-18.7-21.4-18.7h-7c-12.7,0-21.6,7.5-21.6,18.7v28c0,11.2,8.7,18.7,21.6,18.7H101.3z M89.1,191.9v-28
	c0-2.1,2.4-4.2,5.3-4.2h7c2.9,0,4.9,1.8,4.9,4.2v28c0,2.4-1.8,4.1-4.9,4.1h-7C90.9,196,89.1,194.4,89.1,191.9z M204.1,209.3H215
	c0.3,0,0.7-0.2,0.9-0.7l20.8-60.8c0.2-0.6-0.1-1.3-0.9-1.3h-15.9c-0.6,0-0.8,0.2-0.9,0.7l-7.4,26.6c-1,3.6-1.5,6.1-1.8,8.6h-0.3
	c-0.3-2.6-0.9-5-1.9-8.6l-7.7-26.6c-0.1-0.5-0.3-0.7-1-0.7h-15.6c-0.9,0-1.3,0.5-1,1.3l20.8,60.8
	C203.3,209.2,203.8,209.3,204.1,209.3z M160.6,175.5l-14.7-28.1c-0.3-0.6-0.7-0.9-1.3-0.9h-12.6c-0.5,0-0.9,0.2-0.9,1v60.8
	c0,0.8,0.4,1,0.9,1h14.3c0.6,0,1-0.2,1-1v-15.8c0-8.2-0.6-16-0.6-16h0.4c0,0,0.8,2.2,2.1,4.5l14.8,27.5c0.3,0.5,0.6,0.9,1.1,0.9
	h12.4c0.6,0,1-0.2,1-1v-60.8c0-0.8-0.6-1-1-1h-14c-0.6,0-0.9,0.2-0.9,1v16.1c0,8.9,0.5,16.6,0.5,16.6h-0.3
	C162.8,180.3,162,178.1,160.6,175.5z M235.6,10.4H20.4c-0.6,0-1.1,0.5-1.1,1.1v21.2c0,0.6,0.5,1.1,1.1,1.1h215.2
	c0.6,0,1.1-0.5,1.1-1.1V11.5C236.7,10.9,236.2,10.4,235.6,10.4z M235.6,222.1H20.4c-0.6,0-1.1,0.5-1.1,1.1v21.2
	c0,0.6,0.5,1.1,1.1,1.1h215.2c0.6,0,1.1-0.5,1.1-1.1v-21.2C236.7,222.6,236.2,222.1,235.6,222.1z"/>
<path class="st2" d="M138.6,46.5H89.1c-0.6,0-1.1,0.2-1.1,1.2v72.6c0,1,0.5,1.2,1.1,1.2h17.6c0.6,0,1.2-0.2,1.2-1.2V93.5
	c0-0.8,0.4-1.3,1.4-1.3h24c0.6,0,1.2-0.2,1.2-1.1V75.8c0-0.8-0.6-1.1-1.2-1.1h-24c-1.1,0-1.4-0.5-1.4-1.3v-8.2
	c0-0.8,0.4-1.3,1.4-1.3h29.2c0.7,0,1.2-0.2,1.2-1.1V47.6C139.7,46.7,139,46.5,138.6,46.5z M69.8,90.1c-0.4-1.1-0.5-1.9,0.6-2.6
	c5.2-3.3,8.7-9,8.7-16.4V70c0-14.6-10-23.5-25.5-23.5H20.3c-0.6,0-1.1,0.2-1.1,1.2v72.6c0,1,0.5,1.2,1.1,1.2h17.6
	c0.6,0,1.2-0.2,1.2-1.2V93.5c0-0.8,0.4-1.3,1.4-1.3h8.2c0.5,0,0.8,0.2,1.1,0.8l10.9,27.6c0.2,0.5,0.6,0.8,1.1,0.8h18.5
	c1.2,0,1.4-0.7,1.1-1.5L69.8,90.1z M59.4,71.2c0,3.2-2.3,4.8-5.9,4.8h-13c-1.1,0-1.4-0.5-1.4-1.3v-9.4c0-0.8,0.4-1.3,1.4-1.3h13
	c3.9,0,5.9,1.8,5.9,5V71.2z M164,46.5h-17.5c-0.6,0-1.1,0.2-1.1,1.2v72.6c0,1,0.5,1.2,1.1,1.2H164c0.7,0,1.3-0.2,1.3-1.2V47.6
	C165.3,46.7,164.5,46.5,164,46.5z M211.2,46.5h-33.1c-0.6,0-1.1,0.2-1.1,1.2v72.6c0,1,0.5,1.2,1.1,1.2h33.1
	c15.6,0,25.5-8.9,25.5-23.3V70C236.7,55.4,226.8,46.5,211.2,46.5z M217.1,99.1c0,2.5-2.6,4.9-5.9,4.9h-13c-1.1,0-1.4-0.5-1.4-1.3
	V65.2c0-0.8,0.4-1.3,1.4-1.3h13c3.2,0,5.9,2.6,5.9,5V99.1z"/>
</svg>
